<svg xmlns="http://www.w3.org/2000/svg" viewBox="0 0 66.44 67.51">
  <defs>
    <style>
      .cls-1 {
        fill: #e60000;
      }
    </style>
  </defs>
  <path class="cls-1" d="M33.23,5.15c-15.79,0-28.6,12.92-28.6,28.85,0,7.35,2.73,14.06,7.22,19.15l13.34-15.92,9.18-14.33-5.34-2.73-7.73,6.98c-.69,.7-1.82,.63-2.51-.13-.69-.7-.63-1.84,.13-2.54l8.55-7.8c.57-.51,1.32-.57,2.01-.25l10.25,5.2c1.07,.82,2.14,1.78,3.08,2.73l3.46,6.78,7.17-4.31c.82-.51,1.95-.25,2.45,.63,.5,.82,.25,1.97-.63,2.47l-8.61,5.2c-.31,.19-.63,.25-.94,.25-.63,0-1.19-.32-1.51-.82l-3.77-5.96-6.1,9.64,6.73,1.59c.75,.13,1.32,.63,1.63,1.33,.25,.7,.19,1.52-.25,2.16l-7.67,12.24c-.69,1.01-2.01,1.27-3.02,.7-1.13-.63-1.51-2.03-.88-3.17l5.97-9.45-8.74-2.03-12.76,14.87c4.9,3.98,11.13,6.37,17.92,6.37,15.79,0,28.6-12.92,28.6-28.85S49.03,5.15,33.23,5.15Zm12.32,16.42c-2.64,0-4.78-2.16-4.78-4.82s2.14-4.82,4.78-4.82,4.78,2.16,4.78,4.82-2.14,4.82-4.78,4.82Z"/>
</svg>