<?xml version="1.0" encoding="UTF-8"?><svg id="Calque_1" xmlns="http://www.w3.org/2000/svg" viewBox="0 0 178 58.2"><defs><style>.cls-1{fill:#e60000;}</style></defs><path class="cls-1" d="M71.33,38.05c-1.13-.51-1.95-1.27-2.58-2.22-.63-.95-.94-2.03-1.01-3.3h2.95c.06,1.08,.57,1.97,1.32,2.66,.75,.7,1.89,1.01,3.14,1.01,1.13,0,2.01-.25,2.7-.7,.69-.51,1.07-1.14,1.07-2.03,0-.63-.19-1.14-.57-1.52-.38-.38-.88-.63-1.51-.82-.63-.19-1.57-.38-2.77-.63h-.13c-1.13-.19-2.14-.44-2.95-.82-.82-.38-1.51-.89-2.07-1.59-.5-.7-.75-1.65-.75-2.79,0-1.08,.25-2.03,.82-2.85,.57-.82,1.32-1.46,2.33-1.97,1.01-.44,2.14-.7,3.39-.7,1.32,0,2.51,.25,3.52,.76,1.07,.51,1.89,1.14,2.45,2.03,.63,.89,.94,1.9,.94,2.98h-2.95c-.13-.95-.57-1.71-1.26-2.28-.69-.57-1.63-.89-2.7-.89s-1.95,.25-2.58,.7c-.63,.44-.94,1.14-.94,1.97,0,.63,.19,1.08,.57,1.46,.38,.32,.88,.63,1.51,.82,.63,.19,1.51,.38,2.7,.63,1.19,.19,2.2,.51,3.08,.82,.88,.32,1.57,.89,2.14,1.59,.57,.7,.82,1.65,.82,2.79,0,1.08-.31,2.03-.88,2.92-.57,.89-1.38,1.52-2.45,2.03-1.07,.51-2.2,.7-3.52,.7-1.45,.06-2.77-.19-3.83-.76Z"/><path class="cls-1" d="M94.9,25.75c.94,.57,1.7,1.33,2.26,2.41,.57,1.08,.82,2.28,.82,3.74s-.25,2.6-.82,3.61c-.57,1.08-1.32,1.9-2.26,2.47-.94,.57-2.07,.89-3.27,.89s-2.2-.25-3.02-.76c-.82-.51-1.38-1.2-1.82-2.03l.38-.63v8.62h-2.83V25.12h2.45l.57,3.36-.63-.63c.5-.82,1.13-1.52,1.89-2.09,.82-.51,1.76-.76,2.95-.76,1.26-.06,2.33,.25,3.33,.76Zm-5.85,2.16c-.63,.38-1.07,.89-1.38,1.59s-.5,1.46-.5,2.35,.19,1.71,.5,2.41c.31,.7,.82,1.2,1.38,1.65,.63,.38,1.26,.57,2.07,.57,.75,0,1.45-.19,2.07-.57,.63-.38,1.07-.95,1.38-1.59,.31-.7,.5-1.46,.5-2.35s-.19-1.65-.5-2.35c-.31-.7-.75-1.2-1.38-1.59-.63-.38-1.32-.57-2.07-.57-.82-.13-1.51,.06-2.07,.44Z"/><path class="cls-1" d="M103.07,37.99c-1.07-.57-1.89-1.4-2.45-2.47-.57-1.08-.88-2.28-.88-3.61s.31-2.6,.88-3.68c.57-1.08,1.38-1.84,2.45-2.41,1.07-.57,2.26-.89,3.58-.89s2.58,.32,3.58,.89c1.07,.57,1.89,1.39,2.45,2.41,.57,1.08,.88,2.28,.88,3.68s-.31,2.6-.88,3.68c-.57,1.08-1.38,1.84-2.45,2.47-1.07,.57-2.26,.89-3.58,.89-1.38-.06-2.58-.38-3.58-.95Zm5.66-2.16c.63-.38,1.07-.89,1.38-1.59,.32-.7,.5-1.46,.5-2.35s-.19-1.65-.5-2.35c-.31-.7-.75-1.2-1.38-1.59-.63-.38-1.32-.57-2.07-.57s-1.51,.19-2.08,.57c-.63,.38-1.07,.89-1.38,1.59-.32,.7-.5,1.46-.5,2.35s.19,1.65,.5,2.35c.31,.7,.82,1.2,1.38,1.59,.63,.38,1.32,.57,2.08,.57s1.51-.19,2.07-.57Z"/><path class="cls-1" d="M118.35,25.12l.5,3.36-.57-.63c.38-.82,.94-1.52,1.57-1.97,.63-.51,1.57-.7,2.76-.7h.63v2.66h-1.26c-1.19,0-2.01,.38-2.58,1.14-.5,.76-.82,1.78-.82,2.98v6.85h-2.83v-13.7h2.58Z"/><path class="cls-1" d="M125.14,21.25h2.83v3.8h3.27v2.47h-3.27v7.1c0,.57,.12,.95,.31,1.14,.19,.25,.57,.32,1.07,.32h2.2v2.54h-2.76c-1.26,0-2.2-.32-2.77-.89-.56-.57-.88-1.52-.88-2.79v-13.7Z"/><path class="cls-1" d="M136.26,38.05c-1.13-.51-1.95-1.27-2.58-2.22-.63-.95-.94-2.03-1-3.3h2.95c.06,1.08,.57,1.97,1.32,2.66,.75,.7,1.89,1.01,3.14,1.01,1.13,0,2.01-.25,2.7-.7,.69-.51,1.07-1.14,1.07-2.03,0-.63-.19-1.14-.57-1.52-.38-.38-.88-.63-1.51-.82-.63-.19-1.57-.38-2.76-.63h-.13c-1.13-.19-2.14-.44-2.95-.82-.82-.38-1.51-.89-2.07-1.59-.5-.7-.75-1.65-.75-2.79,0-1.08,.25-2.03,.82-2.85,.57-.82,1.32-1.46,2.32-1.97,1.01-.44,2.14-.7,3.39-.7,1.32,0,2.51,.25,3.52,.76,1.07,.51,1.89,1.14,2.45,2.03,.63,.89,.94,1.9,.94,2.98h-2.95c-.13-.95-.57-1.71-1.26-2.28-.69-.57-1.63-.89-2.7-.89s-1.95,.25-2.58,.7c-.63,.44-.94,1.14-.94,1.97,0,.63,.19,1.08,.57,1.46,.38,.32,.88,.63,1.51,.82,.63,.19,1.51,.38,2.7,.63,1.2,.19,2.2,.51,3.08,.82,.88,.32,1.57,.89,2.14,1.59,.57,.7,.82,1.65,.82,2.79,0,1.08-.31,2.03-.88,2.92-.57,.89-1.38,1.52-2.45,2.03-1.07,.51-2.2,.7-3.52,.7-1.45,.06-2.7-.19-3.83-.76Z"/><path class="cls-1" d="M152.1,37.99c-1.07-.57-1.88-1.4-2.45-2.41-.57-1.08-.88-2.28-.88-3.68s.25-2.66,.82-3.68c.57-1.01,1.32-1.84,2.33-2.41,1.01-.57,2.14-.89,3.46-.89s2.45,.25,3.46,.76c1.01,.51,1.76,1.27,2.33,2.28,.57,1.01,.88,2.16,.88,3.42v.51c0,.19,0,.38-.06,.57h-10.18v.13c.06,.76,.19,1.46,.5,2.03,.31,.57,.75,1.01,1.32,1.33,.57,.32,1.19,.51,1.95,.51,.88,0,1.63-.19,2.2-.63,.63-.44,1.01-1.01,1.19-1.78h2.89c-.19,.89-.5,1.71-1.07,2.41-.57,.7-1.26,1.27-2.07,1.71-.88,.38-1.82,.63-2.89,.63-1.45,.06-2.7-.25-3.71-.82Zm1.7-10.34c-.5,.25-.94,.63-1.26,1.14-.31,.51-.57,1.01-.63,1.65h7.23c-.13-1.01-.5-1.84-1.13-2.35-.63-.57-1.51-.82-2.51-.82-.63-.06-1.19,.06-1.7,.38Z"/><path class="cls-1" d="M167.12,37.99c-1.07-.57-1.88-1.4-2.45-2.41-.57-1.08-.88-2.28-.88-3.68s.25-2.66,.82-3.68c.57-1.01,1.32-1.84,2.33-2.41,1.01-.57,2.14-.89,3.46-.89s2.45,.25,3.46,.76c1.01,.51,1.76,1.27,2.32,2.28,.57,1.01,.88,2.16,.88,3.42v.51c0,.19,0,.38-.06,.57h-10.18v.13c.06,.76,.19,1.46,.5,2.03,.31,.57,.75,1.01,1.32,1.33,.57,.32,1.19,.51,1.95,.51,.88,0,1.63-.19,2.2-.63,.63-.44,1.01-1.01,1.19-1.78h2.89c-.19,.89-.5,1.71-1.07,2.41-.57,.7-1.26,1.27-2.07,1.71-.88,.38-1.82,.63-2.89,.63-1.45,.06-2.64-.25-3.71-.82Zm1.7-10.34c-.5,.25-.94,.63-1.26,1.14-.31,.51-.57,1.01-.63,1.65h7.23c-.13-1.01-.5-1.84-1.13-2.35-.63-.57-1.51-.82-2.51-.82-.63-.06-1.19,.06-1.7,.38Z"/><path class="cls-1" d="M28.65,.5C12.86,.5,.05,13.42,.05,29.35c0,7.35,2.73,14.06,7.22,19.15l13.34-15.92,9.18-14.33-5.34-2.73-7.73,6.98c-.69,.7-1.82,.63-2.51-.13-.69-.7-.63-1.84,.13-2.54l8.55-7.8c.57-.51,1.32-.57,2.01-.25l10.25,5.2c1.07,.82,2.14,1.78,3.08,2.73l3.46,6.78,7.17-4.31c.82-.51,1.95-.25,2.45,.63,.5,.82,.25,1.97-.63,2.47l-8.61,5.2c-.31,.19-.63,.25-.94,.25-.63,0-1.19-.32-1.51-.82l-3.77-5.96-6.1,9.64,6.73,1.59c.75,.13,1.32,.63,1.63,1.33,.25,.7,.19,1.52-.25,2.16l-7.67,12.24c-.69,1.01-2.01,1.27-3.02,.7-1.13-.63-1.51-2.03-.88-3.17l5.97-9.45-8.74-2.03-12.76,14.87c4.9,3.98,11.13,6.37,17.92,6.37,15.79,0,28.6-12.92,28.6-28.85S44.45,.5,28.65,.5Zm12.32,16.42c-2.64,0-4.78-2.16-4.78-4.82s2.14-4.82,4.78-4.82,4.78,2.16,4.78,4.82-2.14,4.82-4.78,4.82Z"/></svg>